<svg xmlns="http://www.w3.org/2000/svg" width="97.41610762310597" height="95.94630877637982" fill="currentColor" style=""><rect id="backgroundrect" width="100%" height="100%" x="0" y="0" fill="none" stroke="none" class="" style=""/>
  
<g class="currentLayer" style=""><title>Layer 1</title><path d="M38.535152898161414,8.760179346920609 a11.395883560180664,11.395883560180664 0 0 1 20.808883380889892,0 A11.395883560180664,11.395883560180664 0 0 1 77.37232407125703,19.164621037365634 a11.395883560180664,11.395883560180664 0 0 1 10.404441690444946,18.028287792205813 a11.395883560180664,11.395883560180664 0 0 1 0,20.808883380889892 a11.395883560180664,11.395883560180664 0 0 1 -10.404441690444946,18.028287792205813 a11.395883560180664,11.395883560180664 0 0 1 -18.028287792205813,10.404441690444946 a11.395883560180664,11.395883560180664 0 0 1 -20.808883380889892,0 A11.395883560180664,11.395883560180664 0 0 1 20.506865105955512,76.03008000266703 a11.395883560180664,11.395883560180664 0 0 1 -10.404441690444946,-18.028287792205813 a11.395883560180664,11.395883560180664 0 0 1 0,-20.808883380889892 A11.395883560180664,11.395883560180664 0 0 1 20.506865105955512,19.164621037365634 a11.395883560180664,11.395883560180664 0 0 1 18.028287792205813,-10.404441690444946 zM48.93959458860627,7.71175805938401 a5.697941780090332,5.697941780090332 0 0 0 -5.686545896530151,5.868880033493042 l0.05697941780090336,0.5185127019882199 c0.06837530136108408,0.4387415170669558 0.1652403116226198,1.0028377532958987 0.30768885612487845,1.6865907669067388 c0.27919914722442635,1.3732039690017703 0.6951488971710214,3.08828444480896 1.213661599159241,5.054074358940126 c1.0370254039764406,3.9201839447021505 2.4387190818786633,8.620985913276671 3.8518086433410668,13.185037279129029 L48.93959458860627,34.84535681617416 l0.2564073801040652,-0.8205036163330087 c1.4130895614624026,-4.558353424072266 2.8147832393646253,-9.264853334426881 3.8518086433410668,-13.185037279129029 c0.5185127019882199,-1.9657899141311659 0.9344624519348145,-3.680870389938356 1.213661599159241,-5.054074358940126 a28.47261507511139,28.47261507511139 0 0 0 0.36466827392578177,-2.1994055271148687 L54.6375363686966,13.409699839474342 a5.697941780090332,5.697941780090332 0 0 0 -5.697941780090332,-5.697941780090332 zM14.751943908064277,53.29529230010667 l0.17093825340271018,-0.011395883560180675 l0.5185127019882199,-0.05697941780090336 a28.432729482650757,28.432729482650757 0 0 0 1.6865907669067388,-0.30768885612487845 c1.3732039690017703,-0.27919914722442635 3.08828444480896,-0.6951488971710214 5.054074358940126,-1.213661599159241 a345.2382924556732,345.2382924556732 0 0 0 13.185037279129029,-3.8518086433410668 L36.18760088476415,47.597350520016334 l-0.8205036163330087,-0.2564073801040652 a345.2382924556732,345.2382924556732 0 0 0 -13.185037279129029,-3.8518086433410668 a95.18411743640898,95.18411743640898 0 0 0 -5.054074358940126,-1.213661599159241 a28.432729482650757,28.432729482650757 0 0 0 -2.1994055271148687,-0.36466827392578177 L14.751943908064277,41.899408739926 a5.697941780090332,5.697941780090332 0 1 0 0,11.395883560180664 zm39.885592460632324,28.48970890045166 l-0.011395883560180675,-0.17093825340271018 a28.518198609352112,28.518198609352112 0 0 0 -0.36466827392578177,-2.1994055271148687 a93.43484930992126,93.43484930992126 0 0 0 -1.213661599159241,-5.059772300720216 a345.1927089214325,345.1927089214325 0 0 0 -3.8518086433410668,-13.185037279129029 L48.93959458860627,60.34934422385851 l-0.2564073801040652,0.8205036163330087 c-1.4130895614624026,4.558353424072266 -2.8147832393646253,9.264853334426881 -3.8518086433410668,13.185037279129029 c-0.5185127019882199,1.9657899141311659 -0.9344624519348145,3.680870389938356 -1.213661599159241,5.054074358940126 a28.4669171333313,28.4669171333313 0 0 0 -0.36466827392578177,2.1994055271148687 L43.24165280851594,81.78500120055833 a5.697941780090332,5.697941780090332 0 1 0 11.395883560180664,0 zm-32.45547637939453,-12.159407758712767 l0.14244854450225847,-0.09686501026153582 a28.495406842231752,28.495406842231752 0 0 0 1.7264763593673709,-1.4130895614624026 c1.0484212875366214,-0.9344624519348145 2.3247602462768557,-2.148124051094056 3.7663395166397122,-3.58400537967682 A345.37504305839536,345.37504305839536 0 0 0 37.31579335722199,54.60581890952744 l0.5868880033493048,-0.6324715375900276 l-0.8375974416732794,0.18803207874298114 a346.8906955718994,346.8906955718994 0 0 0 -13.350277590751649,3.259222698211671 c-1.9600919723510764,0.5299085855484011 -3.6466827392578143,1.02562952041626 -4.9800011157989506,1.4700689792633064 a28.848679232597352,28.848679232597352 0 0 0 -2.0911446332931525,0.7863159656524654 l-0.15384442806243925,0.07977118492126475 a5.697941780090332,5.697941780090332 0 1 0 5.697941780090332,9.868835163116456 zM28.996798358290107,82.13827359092392 a5.697941780090332,5.697941780090332 0 0 0 7.783388471603394,-2.085446691513062 l0.07977118492126475,-0.15384442806243925 c0.05697941780090336,-0.11395883560180664 0.11965677738189712,-0.27350120544433604 0.205125904083252,-0.47862710952758825 a29.00252366065979,29.00252366065979 0 0 0 0.5811900615692139,-1.6125175237655645 c0.4444394588470462,-1.3276204347610474 0.9401603937149048,-3.019909143447876 1.4700689792633064,-4.9800011157989506 a345.2952718734741,345.2952718734741 0 0 0 3.259222698211671,-13.350277590751649 l0.18803207874298114,-0.8375974416732794 l-0.6267735958099365,0.5811900615692139 a346.70836143493653,346.70836143493653 0 0 0 -9.93151252269745,9.498468947410586 a97.26386618614197,97.26386618614197 0 0 0 -3.58400537967682,3.760641574859621 a28.831585407257077,28.831585407257077 0 0 0 -1.4130895614624026,1.7321743011474615 l-0.09686501026153582,0.14244854450225847 a5.697941780090332,5.697941780090332 0 0 0 2.085446691513062,7.783388471603394 zm52.398272609710695,-46.70033082962036 a5.697941780090332,5.697941780090332 0 0 0 -5.697941780090332,-9.868835163116456 l-0.14244854450225847,0.09686501026153582 a28.210509753227235,28.210509753227235 0 0 0 -1.7264763593673709,1.4130895614624026 a95.09864830970766,95.09864830970766 0 0 0 -3.7663395166397122,3.58400537967682 A345.97902488708496,345.97902488708496 0 0 0 60.563395819990546,40.588882130505226 l-0.5811900615692139,0.6324715375900276 l0.8375974416732794,-0.18803207874298114 a345.2952718734741,345.2952718734741 0 0 0 13.344579648971559,-3.259222698211671 c1.9657899141311659,-0.5299085855484011 3.6580786228179947,-1.02562952041626 4.985699057579041,-1.4700689792633064 a28.44982330799103,28.44982330799103 0 0 0 2.0911446332931525,-0.7863159656524654 a3.019909143447876,3.019909143447876 0 0 0 0.15384442806243925,-0.07977118492126475 zM68.88239081892243,13.056427449108753 a5.697941780090332,5.697941780090332 0 0 0 -7.783388471603394,2.085446691513062 l-0.07977118492126475,0.15384442806243925 c-0.05697941780090336,0.11395883560180664 -0.11965677738189712,0.27350120544433604 -0.205125904083252,0.47862710952758825 a29.00252366065979,29.00252366065979 0 0 0 -0.5811900615692139,1.6125175237655645 c-0.4444394588470462,1.3276204347610474 -0.9401603937149048,3.019909143447876 -1.4700689792633064,4.985699057579041 a345.4092307090759,345.4092307090759 0 0 0 -3.259222698211671,13.344579648971559 l-0.18803207874298114,0.8375974416732794 l0.6267735958099365,-0.5811900615692139 a346.70836143493653,346.70836143493653 0 0 0 9.93151252269745,-9.498468947410586 c1.4358813285827636,-1.4415792703628547 2.6495429277420044,-2.717918229103089 3.58400537967682,-3.760641574859621 a28.495406842231752,28.495406842231752 0 0 0 1.4130895614624026,-1.7321743011474615 l0.09686501026153582,-0.14244854450225847 a5.697941780090332,5.697941780090332 0 0 0 -2.085446691513062,-7.783388471603394 zM83.12724526914826,53.29529230010667 a5.697941780090332,5.697941780090332 0 0 0 0,-11.395883560180664 l-0.17093825340271018,0.011395883560180675 a28.4669171333313,28.4669171333313 0 0 0 -2.1994055271148687,0.36466827392578177 c-1.3789019107818605,0.27919914722442635 -3.0939823865890506,0.6951488971710214 -5.059772300720216,1.213661599159241 c-3.9201839447021505,1.0370254039764406 -8.620985913276671,2.4387190818786633 -13.185037279129029,3.8518086433410668 L61.69158829244839,47.597350520016334 l0.8205036163330087,0.2564073801040652 c4.558353424072266,1.4130895614624026 9.264853334426881,2.8147832393646253 13.185037279129029,3.8518086433410668 c1.9657899141311659,0.5185127019882199 3.680870389938356,0.9344624519348145 5.054074358940126,1.213661599159241 a28.4669171333313,28.4669171333313 0 0 0 2.1994055271148687,0.36466827392578177 L83.12724526914826,53.29529230010667 zM14.398671517698745,27.654554289700172 a5.697941780090332,5.697941780090332 0 0 0 2.239291119575501,7.863159656524659 l0.47862710952758825,0.19942796230316176 c0.41025180816650403,0.17093825340271018 0.9458583354949958,0.36466827392578177 1.6125175237655645,0.5868880033493048 c1.3276204347610474,0.4444394588470462 3.019909143447876,0.9401603937149048 4.9800011157989506,1.4700689792633064 a346.8906955718994,346.8906955718994 0 0 0 13.350277590751649,3.259222698211671 l0.8375974416732794,0.18803207874298114 l-0.5868880033493048,-0.6324715375900276 a345.2041048049927,345.2041048049927 0 0 0 -9.492771005630495,-9.925814580917358 a95.18411743640898,95.18411743640898 0 0 0 -3.760641574859621,-3.58400537967682 a28.4669171333313,28.4669171333313 0 0 0 -1.7321743011474615,-1.4130895614624026 l-0.14244854450225847,-0.09686501026153582 a5.697941780090332,5.697941780090332 0 0 0 -7.783388471603394,2.085446691513062 zm12.51268014907837,-6.814738368988037 l0.09686501026153582,0.14244854450225847 a28.4669171333313,28.4669171333313 0 0 0 1.4130895614624026,1.7264763593673709 c0.9344624519348145,1.0484212875366214 2.148124051094056,2.3247602462768557 3.58400537967682,3.7663395166397122 A345.27817804813384,345.27817804813384 0 0 0 41.93112619909516,35.973549288632 l0.6324715375900276,0.5811900615692139 l-0.18803207874298114,-0.8375974416732794 a345.3066677570343,345.3066677570343 0 0 0 -3.259222698211671,-13.344579648971559 c-0.5299085855484011,-1.9657899141311659 -1.02562952041626,-3.6580786228179947 -1.4700689792633064,-4.985699057579041 a28.523896551132204,28.523896551132204 0 0 0 -0.7863159656524654,-2.0911446332931525 l-0.07977118492126475,-0.15384442806243925 a5.697941780090332,5.697941780090332 0 1 0 -9.868835163116456,5.697941780090332 zm56.56916599273682,46.70033082962036 a5.697941780090332,5.697941780090332 0 0 0 -2.085446691513062,-7.783388471603394 l-0.15384442806243925,-0.07977118492126475 a28.48970890045166,28.48970890045166 0 0 0 -2.0911446332931525,-0.7863159656524654 c-1.3276204347610474,-0.4444394588470462 -3.019909143447876,-0.9401603937149048 -4.985699057579041,-1.4700689792633064 a345.4035327672958,345.4035327672958 0 0 0 -13.344579648971559,-3.259222698211671 l-0.8375974416732794,-0.18803207874298114 l0.5811900615692139,0.6324715375900276 a346.03600430488586,346.03600430488586 0 0 0 9.498468947410586,9.925814580917358 c1.4415792703628547,1.4358813285827636 2.717918229103089,2.6495429277420044 3.760641574859621,3.58400537967682 a28.18202004432678,28.18202004432678 0 0 0 1.7321743011474615,1.4130895614624026 l0.14244854450225847,0.09686501026153582 a5.697941780090332,5.697941780090332 0 0 0 7.783388471603394,-2.085446691513062 zm-22.381515312194825,12.51268014907837 a5.697941780090332,5.697941780090332 0 0 0 9.868835163116456,-5.697941780090332 l-0.09686501026153582,-0.14244854450225847 a28.860075116157535,28.860075116157535 0 0 0 -1.4130895614624026,-1.7264763593673709 a95.18411743640898,95.18411743640898 0 0 0 -3.58400537967682,-3.7663395166397122 A344.5089559078217,344.5089559078217 0 0 0 55.94806297811738,59.221151751400555 l-0.6324715375900276,-0.5811900615692139 l0.18803207874298114,0.8375974416732794 a345.2952718734741,345.2952718734741 0 0 0 3.259222698211671,13.344579648971559 c0.5299085855484011,1.9657899141311659 1.02562952041626,3.6580786228179947 1.4700689792633064,4.985699057579041 a28.40423977375031,28.40423977375031 0 0 0 0.7863159656524654,2.0911446332931525 a3.2763165235519423,3.2763165235519423 0 0 0 0.07977118492126475,0.15384442806243925 zM48.93959458860627,56.14426319015183 a8.546912670135498,8.546912670135498 0 1 0 0,-17.093825340270996 a8.546912670135498,8.546912670135498 0 0 0 0,17.093825340270996 z" id="svg_1" class="selected" stroke-dasharray="none" fill="#1c0b2b" fill-opacity="1"/></g></svg>